<mxfile host="app.diagrams.net" agent="Mozilla/5.0 (Windows NT 10.0; Win64; x64) AppleWebKit/537.36 (KHTML, like Gecko) Chrome/136.0.0.0 Safari/537.36" version="27.0.9">
  <diagram name="Page-1" id="2YBvvXClWsGukQMizWep">
    <mxGraphModel dx="1042" dy="623" grid="1" gridSize="10" guides="1" tooltips="1" connect="1" arrows="1" fold="1" page="1" pageScale="1" pageWidth="850" pageHeight="1100" math="0" shadow="0">
      <root>
        <mxCell id="0" />
        <mxCell id="1" parent="0" />
        <mxCell id="UUqe1rCwqXkSy-kp3-O1-1" value="Actor" style="shape=umlActor;verticalLabelPosition=bottom;verticalAlign=top;html=1;outlineConnect=0;" parent="1" vertex="1">
          <mxGeometry x="20" y="20" width="30" height="60" as="geometry" />
        </mxCell>
        <mxCell id="UUqe1rCwqXkSy-kp3-O1-5" value="AdminHomeScreen" style="rounded=0;whiteSpace=wrap;html=1;" parent="1" vertex="1">
          <mxGeometry x="120" y="20" width="110" height="20" as="geometry" />
        </mxCell>
        <mxCell id="UUqe1rCwqXkSy-kp3-O1-6" value="EditPHClass" style="rounded=0;whiteSpace=wrap;html=1;" parent="1" vertex="1">
          <mxGeometry x="360" y="20" width="80" height="20" as="geometry" />
        </mxCell>
        <mxCell id="UUqe1rCwqXkSy-kp3-O1-7" value="EditHoursScreen" style="rounded=0;whiteSpace=wrap;html=1;" parent="1" vertex="1">
          <mxGeometry x="450" y="20" width="110" height="20" as="geometry" />
        </mxCell>
        <mxCell id="UUqe1rCwqXkSy-kp3-O1-8" value="DB" style="rounded=0;whiteSpace=wrap;html=1;" parent="1" vertex="1">
          <mxGeometry x="590" y="20" width="80" height="20" as="geometry" />
        </mxCell>
        <mxCell id="UUqe1rCwqXkSy-kp3-O1-9" value="" style="endArrow=none;dashed=1;html=1;rounded=0;fontSize=12;startSize=8;endSize=8;curved=1;" parent="1" edge="1">
          <mxGeometry width="50" height="50" relative="1" as="geometry">
            <mxPoint x="30" y="640" as="sourcePoint" />
            <mxPoint x="30" y="100" as="targetPoint" />
          </mxGeometry>
        </mxCell>
        <mxCell id="UUqe1rCwqXkSy-kp3-O1-10" value="" style="endArrow=none;dashed=1;html=1;rounded=0;fontSize=12;startSize=8;endSize=8;curved=1;" parent="1" source="UUqe1rCwqXkSy-kp3-O1-14" edge="1">
          <mxGeometry width="50" height="50" relative="1" as="geometry">
            <mxPoint x="630" y="600" as="sourcePoint" />
            <mxPoint x="630" y="40" as="targetPoint" />
          </mxGeometry>
        </mxCell>
        <mxCell id="UUqe1rCwqXkSy-kp3-O1-11" value="" style="endArrow=none;dashed=1;html=1;rounded=0;fontSize=12;startSize=8;endSize=8;curved=1;" parent="1" source="UUqe1rCwqXkSy-kp3-O1-26" edge="1">
          <mxGeometry width="50" height="50" relative="1" as="geometry">
            <mxPoint x="500" y="600" as="sourcePoint" />
            <mxPoint x="500" y="40" as="targetPoint" />
          </mxGeometry>
        </mxCell>
        <mxCell id="UUqe1rCwqXkSy-kp3-O1-12" value="" style="endArrow=none;dashed=1;html=1;rounded=0;fontSize=12;startSize=8;endSize=8;curved=1;" parent="1" source="UUqe1rCwqXkSy-kp3-O1-15" edge="1">
          <mxGeometry width="50" height="50" relative="1" as="geometry">
            <mxPoint x="389.5" y="600" as="sourcePoint" />
            <mxPoint x="389.5" y="40" as="targetPoint" />
          </mxGeometry>
        </mxCell>
        <mxCell id="UUqe1rCwqXkSy-kp3-O1-13" value="" style="endArrow=none;dashed=1;html=1;rounded=0;fontSize=12;startSize=8;endSize=8;curved=1;" parent="1" edge="1">
          <mxGeometry width="50" height="50" relative="1" as="geometry">
            <mxPoint x="164.5" y="110" as="sourcePoint" />
            <mxPoint x="164.5" y="40" as="targetPoint" />
          </mxGeometry>
        </mxCell>
        <mxCell id="UUqe1rCwqXkSy-kp3-O1-17" value="" style="endArrow=none;dashed=1;html=1;rounded=0;fontSize=12;startSize=8;endSize=8;curved=1;" parent="1" edge="1">
          <mxGeometry width="50" height="50" relative="1" as="geometry">
            <mxPoint x="164.5" y="630" as="sourcePoint" />
            <mxPoint x="164.5" y="160" as="targetPoint" />
          </mxGeometry>
        </mxCell>
        <mxCell id="UUqe1rCwqXkSy-kp3-O1-16" value="" style="html=1;points=[[0,0,0,0,5],[0,1,0,0,-5],[1,0,0,0,5],[1,1,0,0,-5]];perimeter=orthogonalPerimeter;outlineConnect=0;targetShapes=umlLifeline;portConstraint=eastwest;newEdgeStyle={&quot;curved&quot;:0,&quot;rounded&quot;:0};fillColor=#0050ef;fontColor=#ffffff;strokeColor=#001DBC;" parent="1" vertex="1">
          <mxGeometry x="160" y="90" width="10" height="70" as="geometry" />
        </mxCell>
        <mxCell id="UUqe1rCwqXkSy-kp3-O1-18" value="Select Edit&amp;nbsp;&lt;div&gt;Parking hours&lt;/div&gt;" style="html=1;verticalAlign=bottom;endArrow=block;curved=0;rounded=0;fontSize=12;startSize=8;endSize=8;" parent="1" target="UUqe1rCwqXkSy-kp3-O1-16" edge="1">
          <mxGeometry width="80" relative="1" as="geometry">
            <mxPoint x="30" y="139.5" as="sourcePoint" />
            <mxPoint x="110" y="139.5" as="targetPoint" />
          </mxGeometry>
        </mxCell>
        <mxCell id="UUqe1rCwqXkSy-kp3-O1-19" value="" style="endArrow=none;dashed=1;html=1;rounded=0;fontSize=12;startSize=8;endSize=8;curved=1;" parent="1" target="UUqe1rCwqXkSy-kp3-O1-15" edge="1">
          <mxGeometry width="50" height="50" relative="1" as="geometry">
            <mxPoint x="390" y="640" as="sourcePoint" />
            <mxPoint x="299.5" y="40" as="targetPoint" />
          </mxGeometry>
        </mxCell>
        <mxCell id="UUqe1rCwqXkSy-kp3-O1-15" value="" style="html=1;points=[[0,0,0,0,5],[0,1,0,0,-5],[1,0,0,0,5],[1,1,0,0,-5]];perimeter=orthogonalPerimeter;outlineConnect=0;targetShapes=umlLifeline;portConstraint=eastwest;newEdgeStyle={&quot;curved&quot;:0,&quot;rounded&quot;:0};fillColor=#0050ef;fontColor=#ffffff;strokeColor=#001DBC;" parent="1" vertex="1">
          <mxGeometry x="385" y="160" width="10" height="90" as="geometry" />
        </mxCell>
        <mxCell id="UUqe1rCwqXkSy-kp3-O1-20" value="AdminHomeScreen()" style="html=1;verticalAlign=bottom;endArrow=block;curved=0;rounded=0;fontSize=12;startSize=8;endSize=8;" parent="1" source="qONuOlDzcWgrY1iT0JVq-5" edge="1">
          <mxGeometry width="80" relative="1" as="geometry">
            <mxPoint x="270" y="90" as="sourcePoint" />
            <mxPoint x="170" y="90" as="targetPoint" />
          </mxGeometry>
        </mxCell>
        <mxCell id="UUqe1rCwqXkSy-kp3-O1-21" value="GetHours()" style="html=1;verticalAlign=bottom;endArrow=block;curved=0;rounded=0;fontSize=12;startSize=8;endSize=8;" parent="1" target="UUqe1rCwqXkSy-kp3-O1-14" edge="1">
          <mxGeometry x="-0.5217" width="80" relative="1" as="geometry">
            <mxPoint x="395" y="170" as="sourcePoint" />
            <mxPoint x="475" y="170" as="targetPoint" />
            <mxPoint as="offset" />
          </mxGeometry>
        </mxCell>
        <mxCell id="UUqe1rCwqXkSy-kp3-O1-22" value="" style="endArrow=none;dashed=1;html=1;rounded=0;fontSize=12;startSize=8;endSize=8;curved=1;" parent="1" target="UUqe1rCwqXkSy-kp3-O1-14" edge="1">
          <mxGeometry width="50" height="50" relative="1" as="geometry">
            <mxPoint x="630" y="650" as="sourcePoint" />
            <mxPoint x="540" y="40" as="targetPoint" />
          </mxGeometry>
        </mxCell>
        <mxCell id="UUqe1rCwqXkSy-kp3-O1-14" value="" style="html=1;points=[[0,0,0,0,5],[0,1,0,0,-5],[1,0,0,0,5],[1,1,0,0,-5]];perimeter=orthogonalPerimeter;outlineConnect=0;targetShapes=umlLifeline;portConstraint=eastwest;newEdgeStyle={&quot;curved&quot;:0,&quot;rounded&quot;:0};fillColor=#0050ef;fontColor=#ffffff;strokeColor=#001DBC;" parent="1" vertex="1">
          <mxGeometry x="625" y="170" width="10" height="30" as="geometry" />
        </mxCell>
        <mxCell id="UUqe1rCwqXkSy-kp3-O1-23" value="_init_()" style="html=1;verticalAlign=bottom;endArrow=block;curved=0;rounded=0;fontSize=12;startSize=8;endSize=8;" parent="1" target="UUqe1rCwqXkSy-kp3-O1-15" edge="1">
          <mxGeometry x="1" y="-105" width="80" relative="1" as="geometry">
            <mxPoint x="170" y="160" as="sourcePoint" />
            <mxPoint x="250" y="160" as="targetPoint" />
            <mxPoint x="55" y="-15" as="offset" />
          </mxGeometry>
        </mxCell>
        <mxCell id="UUqe1rCwqXkSy-kp3-O1-24" value="return results" style="html=1;verticalAlign=bottom;endArrow=open;dashed=1;endSize=8;curved=0;rounded=0;fontSize=12;exitX=0;exitY=1;exitDx=0;exitDy=0;exitPerimeter=0;" parent="1" source="UUqe1rCwqXkSy-kp3-O1-14" edge="1">
          <mxGeometry x="0.4412" relative="1" as="geometry">
            <mxPoint x="620" y="200" as="sourcePoint" />
            <mxPoint x="395" y="200" as="targetPoint" />
            <mxPoint as="offset" />
          </mxGeometry>
        </mxCell>
        <mxCell id="UUqe1rCwqXkSy-kp3-O1-25" value="" style="endArrow=none;dashed=1;html=1;rounded=0;fontSize=12;startSize=8;endSize=8;curved=1;" parent="1" target="UUqe1rCwqXkSy-kp3-O1-26" edge="1">
          <mxGeometry width="50" height="50" relative="1" as="geometry">
            <mxPoint x="500" y="640" as="sourcePoint" />
            <mxPoint x="410" y="40" as="targetPoint" />
          </mxGeometry>
        </mxCell>
        <mxCell id="UUqe1rCwqXkSy-kp3-O1-26" value="" style="html=1;points=[[0,0,0,0,5],[0,1,0,0,-5],[1,0,0,0,5],[1,1,0,0,-5]];perimeter=orthogonalPerimeter;outlineConnect=0;targetShapes=umlLifeline;portConstraint=eastwest;newEdgeStyle={&quot;curved&quot;:0,&quot;rounded&quot;:0};fillColor=#0050ef;fontColor=#ffffff;strokeColor=#001DBC;" parent="1" vertex="1">
          <mxGeometry x="495" y="250" width="10" height="310" as="geometry" />
        </mxCell>
        <mxCell id="UUqe1rCwqXkSy-kp3-O1-27" value="go_to_edit_hours()" style="html=1;verticalAlign=bottom;endArrow=block;curved=0;rounded=0;" parent="1" edge="1">
          <mxGeometry x="-1" y="187" width="80" relative="1" as="geometry">
            <mxPoint x="395" y="249" as="sourcePoint" />
            <mxPoint x="495" y="249" as="targetPoint" />
            <mxPoint x="-165" y="98" as="offset" />
          </mxGeometry>
        </mxCell>
        <mxCell id="UUqe1rCwqXkSy-kp3-O1-28" value="Selects hours" style="html=1;verticalAlign=bottom;endArrow=block;curved=0;rounded=0;" parent="1" target="UUqe1rCwqXkSy-kp3-O1-26" edge="1">
          <mxGeometry x="-0.6267" width="80" relative="1" as="geometry">
            <mxPoint x="30" y="280" as="sourcePoint" />
            <mxPoint x="400" y="280" as="targetPoint" />
            <mxPoint as="offset" />
          </mxGeometry>
        </mxCell>
        <mxCell id="UUqe1rCwqXkSy-kp3-O1-30" value="Check_&lt;span style=&quot;background-color: light-dark(#ffffff, var(--ge-dark-color, #121212)); color: light-dark(rgb(0, 0, 0), rgb(255, 255, 255));&quot;&gt;Validity()&lt;/span&gt;" style="html=1;verticalAlign=bottom;endArrow=block;curved=0;rounded=0;fontSize=12;startSize=8;endSize=8;" parent="1" edge="1" target="zo2WVW-2bI0FWXQZ1a4A-2">
          <mxGeometry x="-0.0476" y="30" width="80" relative="1" as="geometry">
            <mxPoint x="500" y="300" as="sourcePoint" />
            <mxPoint x="400" y="300" as="targetPoint" />
            <Array as="points" />
            <mxPoint as="offset" />
          </mxGeometry>
        </mxCell>
        <mxCell id="UUqe1rCwqXkSy-kp3-O1-31" value="alt" style="shape=umlFrame;whiteSpace=wrap;html=1;pointerEvents=0;" parent="1" vertex="1">
          <mxGeometry x="230" y="340" width="450" height="255" as="geometry" />
        </mxCell>
        <mxCell id="UUqe1rCwqXkSy-kp3-O1-35" value="[Check ok]" style="text;html=1;align=center;verticalAlign=middle;whiteSpace=wrap;rounded=0;" parent="1" vertex="1">
          <mxGeometry x="310" y="350" width="60" height="30" as="geometry" />
        </mxCell>
        <mxCell id="UUqe1rCwqXkSy-kp3-O1-36" value="" style="html=1;points=[[0,0,0,0,5],[0,1,0,0,-5],[1,0,0,0,5],[1,1,0,0,-5]];perimeter=orthogonalPerimeter;outlineConnect=0;targetShapes=umlLifeline;portConstraint=eastwest;newEdgeStyle={&quot;curved&quot;:0,&quot;rounded&quot;:0};fillColor=#0050ef;fontColor=#ffffff;strokeColor=#001DBC;" parent="1" vertex="1">
          <mxGeometry x="625" y="430" width="10" height="20" as="geometry" />
        </mxCell>
        <mxCell id="UUqe1rCwqXkSy-kp3-O1-37" value="UpdateDB()" style="html=1;verticalAlign=bottom;endArrow=block;curved=0;rounded=0;fontSize=12;startSize=8;endSize=8;" parent="1" edge="1">
          <mxGeometry x="-0.6522" width="80" relative="1" as="geometry">
            <mxPoint x="400" y="430" as="sourcePoint" />
            <mxPoint x="630" y="430" as="targetPoint" />
            <mxPoint as="offset" />
          </mxGeometry>
        </mxCell>
        <mxCell id="UUqe1rCwqXkSy-kp3-O1-39" value="return&amp;nbsp;&lt;span style=&quot;background-color: light-dark(#ffffff, var(--ge-dark-color, #121212)); color: light-dark(rgb(0, 0, 0), rgb(255, 255, 255));&quot;&gt;&#39;New ...&#39;&lt;/span&gt;" style="html=1;verticalAlign=bottom;startArrow=oval;startFill=1;endArrow=block;startSize=8;curved=0;rounded=0;fontSize=12;" parent="1" edge="1">
          <mxGeometry x="-0.0476" width="60" relative="1" as="geometry">
            <mxPoint x="390" y="460" as="sourcePoint" />
            <mxPoint x="495" y="460" as="targetPoint" />
            <Array as="points">
              <mxPoint x="450" y="460" />
              <mxPoint x="470" y="460" />
            </Array>
            <mxPoint as="offset" />
          </mxGeometry>
        </mxCell>
        <mxCell id="UUqe1rCwqXkSy-kp3-O1-40" value="" style="endArrow=none;dashed=1;html=1;rounded=0;fontSize=12;startSize=8;endSize=8;curved=1;" parent="1" edge="1">
          <mxGeometry width="50" height="50" relative="1" as="geometry">
            <mxPoint x="180" y="510" as="sourcePoint" />
            <mxPoint x="730" y="510" as="targetPoint" />
          </mxGeometry>
        </mxCell>
        <mxCell id="UUqe1rCwqXkSy-kp3-O1-41" value="return&amp;nbsp;&lt;div&gt;&#39;Wrong Hours&#39;&lt;/div&gt;" style="html=1;verticalAlign=bottom;endArrow=block;curved=0;rounded=0;fontSize=12;startSize=8;endSize=8;" parent="1" edge="1">
          <mxGeometry x="-0.1429" width="80" relative="1" as="geometry">
            <mxPoint x="395" y="550" as="sourcePoint" />
            <mxPoint x="500" y="550" as="targetPoint" />
            <Array as="points">
              <mxPoint x="455" y="550" />
              <mxPoint x="480" y="550" />
            </Array>
            <mxPoint as="offset" />
          </mxGeometry>
        </mxCell>
        <mxCell id="UUqe1rCwqXkSy-kp3-O1-43" value="[else]" style="text;html=1;align=center;verticalAlign=middle;whiteSpace=wrap;rounded=0;" parent="1" vertex="1">
          <mxGeometry x="320" y="510" width="60" height="30" as="geometry" />
        </mxCell>
        <mxCell id="UUqe1rCwqXkSy-kp3-O1-44" value="Save_hours()" style="html=1;verticalAlign=bottom;endArrow=block;curved=0;rounded=0;fontSize=12;startSize=8;endSize=8;" parent="1" edge="1">
          <mxGeometry x="-0.6559" width="80" relative="1" as="geometry">
            <mxPoint x="30" y="380" as="sourcePoint" />
            <mxPoint x="495" y="380" as="targetPoint" />
            <mxPoint as="offset" />
          </mxGeometry>
        </mxCell>
        <mxCell id="qONuOlDzcWgrY1iT0JVq-3" value="AdminAppClass" style="whiteSpace=wrap;html=1;" parent="1" vertex="1">
          <mxGeometry x="240" y="20" width="110" height="20" as="geometry" />
        </mxCell>
        <mxCell id="qONuOlDzcWgrY1iT0JVq-4" value="" style="endArrow=none;dashed=1;html=1;rounded=0;" parent="1" source="qONuOlDzcWgrY1iT0JVq-5" edge="1">
          <mxGeometry width="50" height="50" relative="1" as="geometry">
            <mxPoint x="294.5" y="100" as="sourcePoint" />
            <mxPoint x="294.5" y="40" as="targetPoint" />
          </mxGeometry>
        </mxCell>
        <mxCell id="qONuOlDzcWgrY1iT0JVq-6" value="" style="endArrow=none;dashed=1;html=1;rounded=0;" parent="1" edge="1">
          <mxGeometry width="50" height="50" relative="1" as="geometry">
            <mxPoint x="294.5" y="640" as="sourcePoint" />
            <mxPoint x="295" y="100" as="targetPoint" />
          </mxGeometry>
        </mxCell>
        <mxCell id="qONuOlDzcWgrY1iT0JVq-7" value="" style="endArrow=none;dashed=1;html=1;rounded=0;" parent="1" target="qONuOlDzcWgrY1iT0JVq-5" edge="1">
          <mxGeometry width="50" height="50" relative="1" as="geometry">
            <mxPoint x="294.5" y="100" as="sourcePoint" />
            <mxPoint x="294.5" y="40" as="targetPoint" />
          </mxGeometry>
        </mxCell>
        <mxCell id="qONuOlDzcWgrY1iT0JVq-5" value="" style="html=1;points=[[0,0,0,0,5],[0,1,0,0,-5],[1,0,0,0,5],[1,1,0,0,-5]];perimeter=orthogonalPerimeter;outlineConnect=0;targetShapes=umlLifeline;portConstraint=eastwest;newEdgeStyle={&quot;curved&quot;:0,&quot;rounded&quot;:0};fillColor=#0050ef;fontColor=#ffffff;strokeColor=#001DBC;" parent="1" vertex="1">
          <mxGeometry x="290" y="50" width="10" height="40" as="geometry" />
        </mxCell>
        <mxCell id="zo2WVW-2bI0FWXQZ1a4A-2" value="" style="html=1;points=[[0,0,0,0,5],[0,1,0,0,-5],[1,0,0,0,5],[1,1,0,0,-5]];perimeter=orthogonalPerimeter;outlineConnect=0;targetShapes=umlLifeline;portConstraint=eastwest;newEdgeStyle={&quot;curved&quot;:0,&quot;rounded&quot;:0};fillColor=#0050ef;fontColor=#ffffff;strokeColor=#001DBC;" vertex="1" parent="1">
          <mxGeometry x="385" y="300" width="10" height="260" as="geometry" />
        </mxCell>
        <mxCell id="zo2WVW-2bI0FWXQZ1a4A-5" value="return" style="html=1;verticalAlign=bottom;endArrow=open;dashed=1;endSize=8;curved=0;rounded=0;" edge="1" parent="1" target="zo2WVW-2bI0FWXQZ1a4A-2">
          <mxGeometry relative="1" as="geometry">
            <mxPoint x="490" y="400" as="sourcePoint" />
            <mxPoint x="410" y="400" as="targetPoint" />
          </mxGeometry>
        </mxCell>
      </root>
    </mxGraphModel>
  </diagram>
</mxfile>
